<svg width="54" height="54" viewBox="0 0 54 54" fill="none" xmlns="http://www.w3.org/2000/svg">
<path d="M27 27V47.25M27 27L21.375 31.5M27 27L32.625 31.5M11.3265 20.5133C9.19845 21.0487 7.3392 22.3429 6.09804 24.1525C4.85689 25.9621 4.31926 28.1627 4.58617 30.3408C4.85307 32.5189 5.90614 34.5245 7.54752 35.9809C9.1889 37.4373 11.3056 38.2442 13.5 38.25H15.75" stroke="#898989" stroke-width="3" stroke-linecap="round" stroke-linejoin="round"/>
<path d="M35.6175 16.0605C34.8485 13.0153 32.9503 10.3764 30.3078 8.67884C27.6653 6.98125 24.4761 6.35196 21.3868 6.91854C18.2975 7.48512 15.5393 9.20517 13.6711 11.73C11.803 14.2549 10.9648 17.3956 11.3265 20.5155C11.3265 20.5155 11.6707 22.5 12.375 23.625" stroke="#898989" stroke-width="3" stroke-linecap="round" stroke-linejoin="round"/>
<path d="M38.25 38.25C39.8386 38.2489 41.4089 37.9114 42.8577 37.2597C44.3064 36.608 45.6007 35.6568 46.6554 34.4688C47.71 33.2808 48.5011 31.883 48.9766 30.3672C49.4521 28.8514 49.6011 27.2522 49.414 25.6746C49.2268 24.0971 48.7077 22.5771 47.8908 21.2147C47.0738 19.8522 45.9776 18.6783 44.6743 17.77C43.3709 16.8618 41.89 16.2399 40.329 15.9452C38.768 15.6506 37.1622 15.6898 35.6175 16.0605L32.625 16.875" stroke="#898989" stroke-width="3" stroke-linecap="round" stroke-linejoin="round"/>
</svg>
